<?xml version="1.0" standalone="no"?>
<!DOCTYPE svg PUBLIC "-//W3C//DTD SVG 20010904//EN"
 "http://www.w3.org/TR/2001/REC-SVG-20010904/DTD/svg10.dtd">
<svg version="1.0" xmlns="http://www.w3.org/2000/svg"
 width="1080.000000pt" height="1080.000000pt" viewBox="0 0 1080.000000 1080.000000"
 preserveAspectRatio="xMidYMid meet">

<g transform="translate(0.000000,1080.000000) scale(0.100000,-0.100000)"
fill="#000000" stroke="none">
<path d="M10250 10193 c-1177 -688 -2146 -1425 -3300 -2510 -1522 -1430 -2822
-3004 -3795 -4595 -33 -54 -63 -94 -66 -90 -3 4 -59 126 -124 272 -148 332
-300 646 -394 815 -326 582 -607 890 -886 970 -85 25 -284 16 -416 -19 -350
-92 -687 -309 -1111 -717 -43 -41 -79 -80 -80 -87 -2 -7 32 -27 82 -47 589
-243 1037 -844 1623 -2180 302 -690 470 -1109 587 -1463 l57 -173 49 44 c201
177 620 481 1165 845 l287 191 169 333 c654 1284 1474 2551 2592 4003 1093
1421 2199 2638 3156 3476 203 178 384 327 559 462 66 51 130 101 142 112 l23
20 -130 183 c-71 100 -133 182 -137 182 -4 0 -27 -12 -52 -27z"/>
</g>
</svg>
